<svg xmlns="http://www.w3.org/2000/svg" viewBox="0 0 48 48" width="48" height="48">
  <path fill="#FF9900" d="M24 4C12.95 4 4 12.95 4 24s8.95 20 20 20 20-8.95 20-20S35.05 4 24 4z"/>
  <path fill="#252F3E" d="M24 8c-8.84 0-16 7.16-16 16s7.16 16 16 16 16-7.16 16-16S32.84 8 24 8z"/>
  <path fill="#FF9900" d="M15 28.5c0 .83.67 1.5 1.5 1.5h15c.83 0 1.5-.67 1.5-1.5v-9c0-.83-.67-1.5-1.5-1.5h-15c-.83 0-1.5.67-1.5 1.5v9z"/>
  <path fill="#252F3E" d="M24 22c-1.1 0-2 .9-2 2s.9 2 2 2 2-.9 2-2-.9-2-2-2z"/>
  <path fill="#FF9900" d="M24 14v4M20 18h8" stroke="#FF9900" stroke-width="2" stroke-linecap="round"/>
  <path fill="none" stroke="#FF9900" stroke-width="1.5" d="M13 33c3.5 2.5 7 4 11 4s7.5-1.5 11-4"/>
</svg>
